<svg id="Text" xmlns="http://www.w3.org/2000/svg" viewBox="0 0 19.89 19.89"><defs><style>.cls-1{fill:#007f00;}</style></defs><title>pm1</title><path class="cls-1" d="M197.16,1269.35a1.3,1.3,0,1,0,1.3,1.3A1.3,1.3,0,0,0,197.16,1269.35Zm0,1.73a0.43,0.43,0,1,1,.43-0.43A0.43,0.43,0,0,1,197.16,1271.08Z" transform="translate(-183.75 -1263.29)"/><path class="cls-1" d="M190.24,1271.94a1.3,1.3,0,1,0-1.3-1.3A1.3,1.3,0,0,0,190.24,1271.94Zm0-1.73a0.43,0.43,0,1,1-.43.43A0.43,0.43,0,0,1,190.24,1270.21Z" transform="translate(-183.75 -1263.29)"/><path class="cls-1" d="M193.7,1263.29a9.95,9.95,0,1,0,9.95,9.95A10,10,0,0,0,193.7,1263.29Zm0,19a9.08,9.08,0,1,1,9.08-9.08A9.09,9.09,0,0,1,193.7,1282.32Z" transform="translate(-183.75 -1263.29)"/><path class="cls-1" d="M198,1274.54h-8.65a0.43,0.43,0,0,0-.43.43,4.76,4.76,0,1,0,9.51,0A0.43,0.43,0,0,0,198,1274.54Zm-4.32,4.32a3.9,3.9,0,0,1-3.87-3.46h7.74A3.9,3.9,0,0,1,193.7,1278.86Z" transform="translate(-183.75 -1263.29)"/></svg>