<svg id="Text" xmlns="http://www.w3.org/2000/svg" viewBox="0 0 19.89 19.89"><defs><style>.cls-1{fill:#db9500;}</style></defs><title>pm2</title><path class="cls-1" d="M232.84,1263.29a9.95,9.95,0,1,0,9.95,9.95A10,10,0,0,0,232.84,1263.29Zm0,19a9.08,9.08,0,1,1,9.08-9.08A9.09,9.09,0,0,1,232.84,1282.32Z" transform="translate(-222.89 -1263.29)"/><path class="cls-1" d="M230.68,1271.51a1.3,1.3,0,1,0-1.3,1.3A1.3,1.3,0,0,0,230.68,1271.51Zm-1.73,0a0.43,0.43,0,1,1,.43.43A0.43,0.43,0,0,1,228.95,1271.51Z" transform="translate(-222.89 -1263.29)"/><path class="cls-1" d="M236.3,1270.21a1.3,1.3,0,1,0,1.3,1.3A1.3,1.3,0,0,0,236.3,1270.21Zm0,1.73a0.43,0.43,0,1,1,.43-0.43A0.43,0.43,0,0,1,236.3,1271.94Z" transform="translate(-222.89 -1263.29)"/><path class="cls-1" d="M237,1275.51a0.43,0.43,0,0,0-.61,0,4.81,4.81,0,0,1-7.14,0,0.43,0.43,0,0,0-.64.58,5.68,5.68,0,0,0,8.43,0A0.43,0.43,0,0,0,237,1275.51Z" transform="translate(-222.89 -1263.29)"/></svg>