<svg id="Text" xmlns="http://www.w3.org/2000/svg" viewBox="0 0 19.89 19.89"><defs><style>.cls-1{fill:#f15300;}</style></defs><title>pm3</title><path class="cls-1" d="M277.85,1263.29a9.95,9.95,0,1,0,9.95,9.95A10,10,0,0,0,277.85,1263.29Zm0,19a9.08,9.08,0,1,1,9.08-9.08A9.09,9.09,0,0,1,277.85,1282.32Z" transform="translate(-267.9 -1263.29)"/><path class="cls-1" d="M274.39,1272.81a1.3,1.3,0,1,0-1.3-1.3A1.3,1.3,0,0,0,274.39,1272.81Zm0-1.73a0.43,0.43,0,1,1-.43.43A0.43,0.43,0,0,1,274.39,1271.08Z" transform="translate(-267.9 -1263.29)"/><path class="cls-1" d="M281.31,1270.21a1.3,1.3,0,1,0,1.3,1.3A1.3,1.3,0,0,0,281.31,1270.21Zm0,1.73a0.43,0.43,0,1,1,.43-0.43A0.43,0.43,0,0,1,281.31,1271.94Z" transform="translate(-267.9 -1263.29)"/><path class="cls-1" d="M282.17,1275.4h-8.65a0.43,0.43,0,0,0,0,.86h8.65A0.43,0.43,0,0,0,282.17,1275.4Z" transform="translate(-267.9 -1263.29)"/></svg>