<svg id="Text" xmlns="http://www.w3.org/2000/svg" viewBox="0 0 19.89 19.89"><defs><style>.cls-1{fill:#600026;}</style></defs><title>pm4</title><path class="cls-1" d="M322.86,1275.4a5.66,5.66,0,0,0-4.21,1.87,0.43,0.43,0,1,0,.64.58,4.81,4.81,0,0,1,7.14,0,0.43,0.43,0,0,0,.64-0.58A5.66,5.66,0,0,0,322.86,1275.4Z" transform="translate(-312.91 -1263.29)"/><path class="cls-1" d="M322.86,1263.29a9.95,9.95,0,1,0,9.95,9.95A10,10,0,0,0,322.86,1263.29Zm0,19a9.08,9.08,0,1,1,9.08-9.08A9.09,9.09,0,0,1,322.86,1282.32Z" transform="translate(-312.91 -1263.29)"/><path class="cls-1" d="M328,1270.21a0.43,0.43,0,0,0-.43.43,1.3,1.3,0,1,1-2.59,0,0.43,0.43,0,1,0-.86,0,2.16,2.16,0,1,0,4.32,0A0.43,0.43,0,0,0,328,1270.21Z" transform="translate(-312.91 -1263.29)"/><path class="cls-1" d="M321.56,1270.64a0.43,0.43,0,1,0-.86,0,1.3,1.3,0,1,1-2.59,0,0.43,0.43,0,1,0-.86,0A2.16,2.16,0,1,0,321.56,1270.64Z" transform="translate(-312.91 -1263.29)"/></svg>