<svg id="Text" xmlns="http://www.w3.org/2000/svg" viewBox="0 0 19.89 19.89"><defs><style>.cls-1{fill:#3d1a3c;}</style></defs><title>pm5</title><path class="cls-1" d="M362,1275.4a5.66,5.66,0,0,0-4.21,1.87,0.43,0.43,0,0,0,.64.58,4.81,4.81,0,0,1,7.14,0,0.43,0.43,0,0,0,.64-0.58A5.66,5.66,0,0,0,362,1275.4Z" transform="translate(-352.05 -1263.29)"/><path class="cls-1" d="M362,1263.29a9.95,9.95,0,1,0,9.95,9.95A10,10,0,0,0,362,1263.29Zm0,19a9.08,9.08,0,1,1,9.08-9.08A9.09,9.09,0,0,1,362,1282.32Z" transform="translate(-352.05 -1263.29)"/><path class="cls-1" d="M360.7,1271.51a0.43,0.43,0,0,0-.24-0.39l-3.46-1.73a0.43,0.43,0,0,0-.39.77l2.69,1.34-2.69,1.34a0.43,0.43,0,0,0,.39.77l3.46-1.73A0.43,0.43,0,0,0,360.7,1271.51Z" transform="translate(-352.05 -1263.29)"/><path class="cls-1" d="M367.38,1272.85l-2.69-1.34,2.69-1.34a0.43,0.43,0,1,0-.39-0.77l-3.46,1.73a0.43,0.43,0,0,0,0,.77l3.46,1.73A0.43,0.43,0,0,0,367.38,1272.85Z" transform="translate(-352.05 -1263.29)"/></svg>